HIERARCHY
ROOT Hips
{
	OFFSET 0.000000 0.000000 0.000000
	CHANNELS 6 Xposition Yposition Zposition Xrotation Yrotation Zrotation
	JOINT LeftUpLeg_virtual
	{
		OFFSET 0.000000 0.000000 0.000000
		CHANNELS 3 Xrotation Yrotation Zrotation
		JOINT LeftUpLeg
		{
			OFFSET 15.427100 -6.655098 0.678600
			CHANNELS 3 Xrotation Yrotation Zrotation
			JOINT LeftLeg
			{
				OFFSET 4.081073 -39.591068 13.024000
				CHANNELS 3 Xrotation Yrotation Zrotation
				JOINT LeftFoot
				{
					OFFSET -4.081074 -37.707932 -15.979700
					CHANNELS 3 Xrotation Yrotation Zrotation
					JOINT LeftToeBase
					{
						OFFSET 5.346399 -15.068900 20.645000
						CHANNELS 3 Xrotation Yrotation Zrotation
						JOINT LeftToe_End
						{
							OFFSET 2.754700 0.931300 11.300900
							CHANNELS 3 Xrotation Yrotation Zrotation
							End Site
							{
								OFFSET 0 0 0
							}
						}
					}
				}
			}
		}
	}
	JOINT RightUpLeg_virtual
	{
		OFFSET 0.000000 0.000000 0.000000
		CHANNELS 3 Xrotation Yrotation Zrotation
		JOINT RightUpLeg
		{
			OFFSET -15.569500 -6.655098 0.678600
			CHANNELS 3 Xrotation Yrotation Zrotation
			JOINT RightLeg
			{
				OFFSET -4.081825 -39.591045 13.023800
				CHANNELS 3 Xrotation Yrotation Zrotation
				JOINT RightFoot
				{
					OFFSET 4.081824 -37.707954 -15.979600
					CHANNELS 3 Xrotation Yrotation Zrotation
					JOINT RightToeBase
					{
						OFFSET -5.346400 -15.068900 20.645000
						CHANNELS 3 Xrotation Yrotation Zrotation
						JOINT RightToe_End
						{
							OFFSET -2.754700 0.931300 11.300900
							CHANNELS 3 Xrotation Yrotation Zrotation
							End Site
							{
								OFFSET 0 0 0
							}
						}
					}
				}
			}
		}
	}
	JOINT Spine_virtual
	{
		OFFSET 0.000000 0.000000 0.000000
		CHANNELS 3 Xrotation Yrotation Zrotation
		JOINT Spine
		{
			OFFSET -0.279200 12.230698 -2.892100
			CHANNELS 3 Xrotation Yrotation Zrotation
			JOINT Spine1
			{
				OFFSET -0.232667 10.192268 -1.242267
				CHANNELS 3 Xrotation Yrotation Zrotation
				JOINT Spine1_split
				{
					OFFSET -0.232667 10.192268 -1.242267
					CHANNELS 3 Xrotation Yrotation Zrotation
					JOINT Spine2
					{
						OFFSET -0.232667 10.192268 -1.242267
						CHANNELS 3 Xrotation Yrotation Zrotation
						JOINT Neck_virtual
						{
							OFFSET 0.000000 0.000000 0.000000
							CHANNELS 3 Xrotation Yrotation Zrotation
							JOINT Neck
							{
								OFFSET -0.418800 17.814194 8.416900
								CHANNELS 3 Xrotation Yrotation Zrotation
								JOINT Head
								{
									OFFSET 0.000000 7.031097 3.806800
									CHANNELS 3 Xrotation Yrotation Zrotation
									JOINT HeadTop_End
									{
										OFFSET 0.000000 24.646606 12.978600
										CHANNELS 3 Xrotation Yrotation Zrotation
										End Site
										{
											OFFSET 0 0 0
										}
									}
								}
							}
						}
						JOINT LeftShoulder_virtual
						{
							OFFSET 0.000000 0.000000 0.000000
							CHANNELS 3 Xrotation Yrotation Zrotation
							JOINT LeftShoulder
							{
								OFFSET 8.476499 7.247704 -3.868750
								CHANNELS 3 Xrotation Yrotation Zrotation
								JOINT LeftShoulder_split
								{
									OFFSET 8.476499 7.247704 -3.868750
									CHANNELS 3 Xrotation Yrotation Zrotation
									JOINT LeftArm
									{
										OFFSET 9.308998 -2.777710 0.208600
										CHANNELS 3 Xrotation Yrotation Zrotation
										JOINT LeftForeArm
										{
											OFFSET 29.972298 0.000000 0.000000
											CHANNELS 3 Xrotation Yrotation Zrotation
											JOINT LeftHand
											{
												OFFSET 26.026505 0.000000 0.000000
												CHANNELS 3 Xrotation Yrotation Zrotation
												End Site
												{
													OFFSET 0 0 0
												}
											}
										}
									}
								}
							}
						}
						JOINT RightShoulder_virtual
						{
							OFFSET 0.000000 0.000000 0.000000
							CHANNELS 3 Xrotation Yrotation Zrotation
							JOINT RightShoulder
							{
								OFFSET -7.570500 7.247704 -3.868750
								CHANNELS 3 Xrotation Yrotation Zrotation
								JOINT RightShoulder_split
								{
									OFFSET -7.570500 7.247704 -3.868750
									CHANNELS 3 Xrotation Yrotation Zrotation
									JOINT RightArm
									{
										OFFSET -9.308998 -2.777710 0.208500
										CHANNELS 3 Xrotation Yrotation Zrotation
										JOINT RightForeArm
										{
											OFFSET -29.972300 0.000000 0.000000
											CHANNELS 3 Xrotation Yrotation Zrotation
											JOINT RightHand
											{
												OFFSET -26.026505 0.000000 0.000000
												CHANNELS 3 Xrotation Yrotation Zrotation
												End Site
												{
													OFFSET 0 0 0
												}
											}
										}
									}
								}
							}
						}
					}
				}
			}
		}
	}
}
MOTION
Frames: 4
Frame Time: 0.03333333
0.808035 67.392220 -6.626064 0.000000 0.000000 0.000000 -14.622668 5.243196 1.817066 -30.405195 -2.444706 13.564603 66.832445 0.102073 -0.367882 -28.917911 -0.885715 -15.300985 -2.009466 -0.165667 0.261416 0.000000 0.000000 0.000000 -13.582489 3.193605 1.504370 -27.673092 -2.076276 -24.847890 67.678876 3.974898 1.390670 -29.979268 -4.566562 14.501485 2.653723 1.035283 0.012128 0.000000 0.000000 0.000000 -13.149269 3.683107 1.386905 25.264373 -3.240673 -0.305416 16.676032 -0.232114 0.486817 -0.003916 1.101565 0.273976 0.000000 0.000000 0.000000 17.764929 -0.223494 0.646233 8.312597 -4.079978 1.186377 -12.458089 -2.009018 -4.152598 0.000000 0.000000 0.000000 18.402447 -0.387314 0.290607 0.716714 -19.081822 -4.261372 -1.389121 -1.829793 -4.599922 -29.523011 0.209733 -59.836275 -135.656026 -77.068480 -133.492878 0.000000 0.000000 0.000000 18.066571 -0.003729 0.776429 7.391352 3.009408 21.423204 2.641728 3.567814 4.055974 -31.411511 9.782020 42.600508 -104.141281 63.048848 95.085126 0.000000 0.000000 0.000000 
0.643413 67.994965 -6.103863 0.000000 0.000000 0.000000 -15.424085 4.955575 1.509786 -28.524328 -2.575719 13.907129 65.874463 0.230939 -0.194360 -29.077785 -0.801365 -15.067968 -2.134215 -0.162409 0.225824 0.000000 0.000000 0.000000 -14.511358 3.389197 1.260867 -25.790815 -2.247837 -24.142053 66.995406 3.837133 1.420096 -30.326405 -4.701535 14.350362 2.625232 1.022009 0.057081 0.000000 0.000000 0.000000 -14.399591 3.339126 1.228202 24.879481 -2.970485 -0.419585 16.165323 -0.174345 0.585219 -0.232054 0.704252 0.284550 0.000000 0.000000 0.000000 17.016301 -0.169495 0.663138 8.009165 -3.926885 0.574437 -11.891446 -1.638608 -3.707040 0.000000 0.000000 0.000000 18.158020 -0.467742 0.393990 0.557818 -19.344714 -5.434679 -0.720680 -2.153829 -4.008480 -27.265470 -1.355619 -60.175196 -131.438849 -79.898918 -129.232097 0.000000 0.000000 0.000000 17.548419 0.061523 0.925071 7.360979 3.371297 21.700464 2.259913 2.808793 4.222477 -28.593342 8.061307 40.973946 -103.142687 62.933520 93.660513 0.000000 0.000000 0.000000 
0.412449 68.793816 -5.603653 0.000000 0.000000 0.000000 -16.325554 4.626519 1.188052 -26.423258 -2.807186 14.350958 64.547023 0.327289 -0.006259 -29.081661 -0.777128 -14.852475 -2.196158 -0.170909 0.206182 0.000000 0.000000 0.000000 -15.569558 3.555343 1.029249 -23.571753 -2.665105 -23.370537 65.904850 3.717445 1.513529 -30.646038 -4.861382 14.165897 2.501845 1.013830 0.100864 0.000000 0.000000 0.000000 -15.754718 3.230542 0.971967 24.236670 -2.647897 -0.433563 15.807781 -0.156473 0.729601 -0.210821 0.752820 0.351363 0.000000 0.000000 0.000000 16.445579 -0.173955 0.703254 7.598667 -3.661492 -0.145680 -11.536000 -1.182488 -3.167101 0.000000 0.000000 0.000000 17.984793 -0.562345 0.594947 0.425264 -20.042707 -6.560562 -0.695873 -2.364813 -3.672570 -24.539621 -3.767338 -59.599800 -122.627099 -82.201668 -119.868413 0.000000 0.000000 0.000000 17.083898 0.015879 1.123001 7.158266 3.571219 22.075484 1.439629 2.719312 4.157312 -24.859472 7.602345 39.183002 -104.526756 64.083328 94.670691 0.000000 0.000000 0.000000 
0.139998 69.687157 -5.123756 0.000000 0.000000 0.000000 -17.205368 4.302455 0.907872 -24.292575 -3.086173 14.824517 62.985532 0.387001 0.153497 -28.923792 -0.802252 -14.672619 -2.184955 -0.192544 0.222661 0.000000 0.000000 0.000000 -16.652665 3.612817 0.849652 -21.322744 -3.276388 -22.634916 64.530603 3.645141 1.666541 -30.845332 -5.024652 13.999005 2.269800 1.009348 0.118760 0.000000 0.000000 0.000000 -17.008230 3.400417 0.695653 23.532602 -2.341496 -0.368778 15.533020 -0.185185 0.867882 0.219931 1.195042 0.586088 0.000000 0.000000 0.000000 16.028442 -0.224233 0.749598 6.882390 -3.288775 -0.854967 -11.541751 -0.757352 -2.523265 0.000000 0.000000 0.000000 17.720957 -0.659115 0.848274 0.376165 -20.850496 -7.370316 -1.052772 -2.493976 -3.742915 -22.274604 -6.027867 -58.303786 -114.965266 -83.570991 -111.190726 0.000000 0.000000 0.000000 16.627860 -0.126128 1.316848 6.870734 3.468627 22.483174 0.336656 2.909912 4.086785 -20.672916 7.866716 38.018708 -107.464462 66.277820 97.186352 0.000000 0.000000 0.000000 
